<svg xmlns="http://www.w3.org/2000/svg" viewBox="0 0 32 32" fill="none">
  <defs>
    <linearGradient id="bg" x1="0%" y1="0%" x2="100%" y2="100%">
      <stop offset="0%" style="stop-color:#10B981"/>
      <stop offset="100%" style="stop-color:#059669"/>
    </linearGradient>
  </defs>
  <rect width="32" height="32" rx="8" fill="url(#bg)"/>
  <path d="M16 8C14.4 8 13 9.2 13 11c0 1.2.8 2.2 2 2.7V24c0 .6.4 1 1 1s1-.4 1-1V13.7c1.2-.5 2-1.5 2-2.7 0-1.8-1.4-3-3-3z" fill="white"/>
  <path d="M10 14h3v2h-3zM19 14h3v2h-3z" fill="white" opacity="0.8"/>
  <path d="M16 17c-2.8 0-5 1.8-5 4h2c0-1.1 1.3-2 3-2s3 .9 3 2h2c0-2.2-2.2-4-5-4z" fill="white"/>
</svg>
